<svg xmlns="http://www.w3.org/2000/svg" version="1.1" xmlns:xlink="http://www.w3.org/1999/xlink" width="512" height="512" x="0" y="0" viewBox="0 0 512 512" style="enable-background:new 0 0 512 512" xml:space="preserve"><g><path fill-rule="evenodd" d="M270.151 216.195c0 5.269-2.88 9.865-7.151 12.301v16.724a7 7 0 1 1-14 0v-16.724c-4.271-2.436-7.152-7.032-7.152-12.301 0-7.816 6.336-14.151 14.151-14.151s14.151 6.336 14.151 14.151zm5.668-52.845c0-10.927-8.891-19.82-19.819-19.82s-19.816 8.893-19.816 19.82v17.583h39.636V163.35zm-19.82-61.219c26.58 14.364 57.703 26.896 92.647 37.312v98.546c0 9.312-2.133 17.241-6.72 24.963-14.283 24.052-56.3 49.376-85.927 66.825-29.624-17.449-71.641-42.773-85.926-66.825-4.585-7.722-6.72-15.651-6.72-24.963v-98.546c34.944-10.416 66.067-22.948 92.646-37.312zm0 27.402c-18.647 0-33.817 15.168-33.817 33.817v17.583h-6.521c-5.723 0-10.405 4.682-10.405 10.405v69.366c0 5.723 4.682 10.405 10.405 10.405h80.677c5.723 0 10.405-4.682 10.405-10.405v-69.366c0-5.723-4.682-10.405-10.405-10.405h-6.521V163.35c0-18.649-15.17-33.817-33.818-33.817zm245 139.072c0 9.281-7.524 16.805-16.805 16.805s-16.804-7.524-16.804-16.805c0-2.06.371-4.033 1.05-5.857l-25.222-25.222h-59.571v.466c0 4.962-.382 9.772-1.16 14.457h43.963a7 7 0 0 1 7 7v41.076c5.786 2.655 9.805 8.498 9.805 15.281 0 9.281-7.524 16.805-16.805 16.805s-16.805-7.524-16.805-16.805c0-6.783 4.019-12.626 9.805-15.281v-34.076h-40.609c-1.767 4.901-4.033 9.682-6.821 14.376-8.706 14.659-22.628 28.065-38.784 40.441v105.207c5.786 2.655 9.805 8.498 9.805 15.281 0 9.281-7.524 16.805-16.805 16.805s-16.805-7.524-16.805-16.805c0-6.783 4.019-12.626 9.805-15.281v-95.069c-5.684 3.912-11.523 7.718-17.407 11.425v57.753c0 2.115-.938 4.01-2.42 5.294L263 442.546v26.243c5.786 2.655 9.805 8.498 9.805 15.281 0 9.281-7.524 16.805-16.805 16.805s-16.805-7.524-16.805-16.805c0-6.783 4.019-12.626 9.805-15.281V439.69c0-1.851.748-3.611 2.051-4.922l36.778-37.042V351.45c-10.983 6.635-21.826 12.95-31.829 18.997-10.003-6.047-20.846-12.362-31.829-18.997v46.292l17.391 17.658a6.98 6.98 0 1 1-9.953 9.789l-19.046-19.339a6.983 6.983 0 0 1-2.392-5.269v-57.753c-5.884-3.708-11.723-7.513-17.407-11.425v95.068c5.786 2.655 9.805 8.498 9.805 15.281 0 9.281-7.524 16.805-16.805 16.805s-16.805-7.524-16.805-16.805c0-6.783 4.019-12.626 9.805-15.281V321.264c-16.155-12.376-30.078-25.781-38.784-40.441-2.788-4.694-5.054-9.475-6.821-14.376H92.55v34.076c5.786 2.655 9.805 8.498 9.805 15.281 0 9.281-7.524 16.805-16.805 16.805s-16.805-7.524-16.805-16.805c0-6.783 4.019-12.627 9.805-15.281v-41.076a7 7 0 0 1 7-7h43.963c-.778-4.685-1.16-9.496-1.16-14.457v-.466H68.782L43.56 262.746a16.776 16.776 0 0 1 1.05 5.857c0 9.281-7.524 16.805-16.804 16.805s-16.805-7.524-16.805-16.805 7.524-16.805 16.805-16.805c2.06 0 4.033.371 5.857 1.05l27.225-27.225a6.978 6.978 0 0 1 4.997-2.099h62.469v-14.923H65.885a6.982 6.982 0 0 1-4.997-2.098l-27.225-27.225a16.776 16.776 0 0 1-5.857 1.05c-9.281 0-16.805-7.524-16.805-16.805s7.524-16.805 16.805-16.805 16.804 7.524 16.804 16.805c0 2.06-.371 4.033-1.05 5.857l25.222 25.222h59.571v-14.923H85.55a7 7 0 0 1-7-7v-41.076c-5.786-2.655-9.805-8.498-9.805-15.281 0-9.281 7.524-16.805 16.805-16.805s16.805 7.524 16.805 16.805c0 6.783-4.019 12.626-9.805 15.281v34.076h35.803v-52.872c27.53-7.026 77.515-21.659 120.647-46.899V43.211c-5.786-2.655-9.805-8.498-9.805-15.281 0-9.281 7.524-16.805 16.805-16.805s16.805 7.524 16.805 16.805c0 6.783-4.019 12.626-9.805 15.281v22.697c43.132 25.24 93.117 39.873 120.647 46.899v52.872h35.803v-34.076c-5.786-2.655-9.805-8.498-9.805-15.281 0-9.281 7.524-16.805 16.805-16.805s16.805 7.524 16.805 16.805c0 6.783-4.02 12.626-9.805 15.281v41.076a7 7 0 0 1-7 7h-42.803v14.923h59.571l25.222-25.222a16.776 16.776 0 0 1-1.05-5.857c0-9.281 7.524-16.805 16.804-16.805s16.805 7.524 16.805 16.805-7.524 16.805-16.805 16.805c-2.06 0-4.033-.371-5.857-1.05l-27.225 27.225a6.978 6.978 0 0 1-4.997 2.098h-62.469v14.923h62.469a6.98 6.98 0 0 1 4.997 2.099l27.225 27.225a16.776 16.776 0 0 1 5.857-1.05c9.281 0 16.805 7.524 16.805 16.805zM362.646 134.208a6.995 6.995 0 0 0-5.053-6.724c-37.51-10.855-70.548-24.129-98.199-39.452a6.997 6.997 0 0 0-6.788 0c-27.651 15.323-60.691 28.597-98.198 39.452a6.993 6.993 0 0 0-5.055 6.724v103.781c0 11.934 2.76 22.138 8.683 32.111 16.703 28.125 61.62 54.544 94.416 73.829a6.986 6.986 0 0 0 7.097 0c32.797-19.285 77.714-45.704 94.414-73.829 5.925-9.973 8.683-20.177 8.683-32.111z" fill="#00ff05" opacity="1" data-original="#000000"></path></g></svg>